<?xml version="1.0" encoding="UTF-8" standalone="no"?>
<!-- Created with Inkscape (http://www.inkscape.org/) -->

<svg xmlns:dc="http://purl.org/dc/elements/1.1/" xmlns:cc="http://creativecommons.org/ns#" xmlns:rdf="http://www.w3.org/1999/02/22-rdf-syntax-ns#" xmlns:svg="http://www.w3.org/2000/svg" xmlns="http://www.w3.org/2000/svg" xmlns:xlink="http://www.w3.org/1999/xlink" xmlns:sodipodi="http://sodipodi.sourceforge.net/DTD/sodipodi-0.dtd" xmlns:inkscape="http://www.inkscape.org/namespaces/inkscape" width="744.09448819" height="1052.3622047" id="svg4239" version="1.1" inkscape:version="0.47 r22583" sodipodi:docname="New document 12">
<defs id="defs4241">
<linearGradient id="linearGradient6109">
<stop style="stop-color:#ff0000;stop-opacity:1;" offset="0" id="stop6111" />
<stop id="stop6117" offset="0.89999998" style="stop-color:#ff0000;stop-opacity:1;" />
<stop style="stop-color:#ff0000;stop-opacity:0;" offset="1" id="stop6113" />
</linearGradient>
<inkscape:perspective sodipodi:type="inkscape:persp3d" inkscape:vp_x="0 : 526.18109 : 1" inkscape:vp_y="0 : 1000 : 0" inkscape:vp_z="744.09448 : 526.18109 : 1" inkscape:persp3d-origin="372.04724 : 350.78739 : 1" id="perspective4247" />
<inkscape:perspective id="perspective4233" inkscape:persp3d-origin="0.5 : 0.33333333 : 1" inkscape:vp_z="1 : 0.5 : 1" inkscape:vp_y="0 : 1000 : 0" inkscape:vp_x="0 : 0.5 : 1" sodipodi:type="inkscape:persp3d" />
<inkscape:perspective id="perspective4272" inkscape:persp3d-origin="0.5 : 0.33333333 : 1" inkscape:vp_z="1 : 0.5 : 1" inkscape:vp_y="0 : 1000 : 0" inkscape:vp_x="0 : 0.5 : 1" sodipodi:type="inkscape:persp3d" />
<inkscape:perspective id="perspective4804" inkscape:persp3d-origin="0.5 : 0.33333333 : 1" inkscape:vp_z="1 : 0.5 : 1" inkscape:vp_y="0 : 1000 : 0" inkscape:vp_x="0 : 0.5 : 1" sodipodi:type="inkscape:persp3d" />
<inkscape:perspective id="perspective4834" inkscape:persp3d-origin="0.5 : 0.33333333 : 1" inkscape:vp_z="1 : 0.5 : 1" inkscape:vp_y="0 : 1000 : 0" inkscape:vp_x="0 : 0.5 : 1" sodipodi:type="inkscape:persp3d" />
<inkscape:perspective id="perspective4834-4" inkscape:persp3d-origin="0.5 : 0.33333333 : 1" inkscape:vp_z="1 : 0.5 : 1" inkscape:vp_y="0 : 1000 : 0" inkscape:vp_x="0 : 0.5 : 1" sodipodi:type="inkscape:persp3d" />
<inkscape:perspective id="perspective4834-5" inkscape:persp3d-origin="0.5 : 0.33333333 : 1" inkscape:vp_z="1 : 0.5 : 1" inkscape:vp_y="0 : 1000 : 0" inkscape:vp_x="0 : 0.5 : 1" sodipodi:type="inkscape:persp3d" />
<inkscape:perspective id="perspective4834-59" inkscape:persp3d-origin="0.5 : 0.33333333 : 1" inkscape:vp_z="1 : 0.5 : 1" inkscape:vp_y="0 : 1000 : 0" inkscape:vp_x="0 : 0.5 : 1" sodipodi:type="inkscape:persp3d" />
<inkscape:perspective id="perspective4834-0" inkscape:persp3d-origin="0.5 : 0.33333333 : 1" inkscape:vp_z="1 : 0.5 : 1" inkscape:vp_y="0 : 1000 : 0" inkscape:vp_x="0 : 0.5 : 1" sodipodi:type="inkscape:persp3d" />
<inkscape:perspective id="perspective4834-00" inkscape:persp3d-origin="0.5 : 0.33333333 : 1" inkscape:vp_z="1 : 0.5 : 1" inkscape:vp_y="0 : 1000 : 0" inkscape:vp_x="0 : 0.5 : 1" sodipodi:type="inkscape:persp3d" />
<inkscape:perspective id="perspective4834-47" inkscape:persp3d-origin="0.5 : 0.33333333 : 1" inkscape:vp_z="1 : 0.5 : 1" inkscape:vp_y="0 : 1000 : 0" inkscape:vp_x="0 : 0.5 : 1" sodipodi:type="inkscape:persp3d" />
<inkscape:perspective id="perspective4986" inkscape:persp3d-origin="0.5 : 0.33333333 : 1" inkscape:vp_z="1 : 0.5 : 1" inkscape:vp_y="0 : 1000 : 0" inkscape:vp_x="0 : 0.5 : 1" sodipodi:type="inkscape:persp3d" />
<inkscape:perspective id="perspective5175" inkscape:persp3d-origin="0.5 : 0.33333333 : 1" inkscape:vp_z="1 : 0.5 : 1" inkscape:vp_y="0 : 1000 : 0" inkscape:vp_x="0 : 0.5 : 1" sodipodi:type="inkscape:persp3d" />
<inkscape:perspective id="perspective5264" inkscape:persp3d-origin="0.5 : 0.33333333 : 1" inkscape:vp_z="1 : 0.5 : 1" inkscape:vp_y="0 : 1000 : 0" inkscape:vp_x="0 : 0.5 : 1" sodipodi:type="inkscape:persp3d" />
<inkscape:perspective id="perspective5264-1" inkscape:persp3d-origin="0.5 : 0.33333333 : 1" inkscape:vp_z="1 : 0.5 : 1" inkscape:vp_y="0 : 1000 : 0" inkscape:vp_x="0 : 0.5 : 1" sodipodi:type="inkscape:persp3d" />
<inkscape:perspective id="perspective5360" inkscape:persp3d-origin="0.5 : 0.33333333 : 1" inkscape:vp_z="1 : 0.5 : 1" inkscape:vp_y="0 : 1000 : 0" inkscape:vp_x="0 : 0.5 : 1" sodipodi:type="inkscape:persp3d" />
<radialGradient inkscape:collect="always" xlink:href="#linearGradient6109" id="radialGradient6115" cx="307.5" cy="422.36218" fx="307.5" fy="422.36218" r="62.5" gradientUnits="userSpaceOnUse" />
<radialGradient inkscape:collect="always" xlink:href="#linearGradient6109" id="radialGradient6122" gradientUnits="userSpaceOnUse" cx="307.5" cy="422.36218" fx="307.5" fy="422.36218" r="62.5" gradientTransform="matrix(1.08,0,0,1.08,105.9,61.711025)" />
<radialGradient inkscape:collect="always" xlink:href="#linearGradient6109" id="radialGradient6132" gradientUnits="userSpaceOnUse" gradientTransform="matrix(1.08,0,0,1.08,105.9,61.711025)" cx="307.5" cy="422.36218" fx="307.5" fy="422.36218" r="62.5" />
<radialGradient inkscape:collect="always" xlink:href="#linearGradient6109" id="radialGradient6137" gradientUnits="userSpaceOnUse" gradientTransform="matrix(1.08,0,0,1.08,105.9,61.711025)" cx="307.5" cy="422.36218" fx="307.5" fy="422.36218" r="62.5" />
<radialGradient inkscape:collect="always" xlink:href="#linearGradient6109" id="radialGradient6142" gradientUnits="userSpaceOnUse" gradientTransform="matrix(1.08,0,0,1.08,105.9,61.711025)" cx="307.5" cy="422.36218" fx="307.5" fy="422.36218" r="62.5" />
<radialGradient inkscape:collect="always" xlink:href="#linearGradient6109" id="radialGradient6145" gradientUnits="userSpaceOnUse" gradientTransform="matrix(1.35,0,0,1.35,45.374999,-74.701767)" cx="307.5" cy="422.36218" fx="307.5" fy="422.36218" r="62.5" />
</defs>
<sodipodi:namedview id="base" pagecolor="#ffffff" bordercolor="#666666" borderopacity="1.0" inkscape:pageopacity="0.0" inkscape:pageshadow="2" inkscape:zoom="2" inkscape:cx="474.15205" inkscape:cy="563.53324" inkscape:document-units="px" inkscape:current-layer="layer1" showgrid="true" showguides="true" inkscape:guide-bbox="true" inkscape:window-width="1680" inkscape:window-height="975" inkscape:window-x="0" inkscape:window-y="24" inkscape:window-maximized="1">
<inkscape:grid type="xygrid" id="grid4249" />
</sodipodi:namedview>
<metadata id="metadata4244">
<rdf:RDF>
<cc:Work rdf:about="">
<dc:format>image/svg+xml</dc:format>
<dc:type rdf:resource="http://purl.org/dc/dcmitype/StillImage" />
<dc:title></dc:title>
</cc:Work>
</rdf:RDF>
</metadata>
<g inkscape:label="Layer 1" inkscape:groupmode="layer" id="layer1">
<path style="opacity:0.98999999;fill:url(#radialGradient6145);fill-opacity:1;fill-rule:nonzero;stroke:none" d="m 435.65625,545.34695 -13.04687,25.54688 c 11.39896,5.74794 24.2539,8.98437 37.89062,8.98437 0.22286,0 0.44161,0.002 0.66406,0 l 0,-28.75 c -0.22225,0.003 -0.4412,0 -0.66406,0 -8.91639,0 -17.35355,-2.08542 -24.84375,-5.78125 z" id="path6107" />
<path sodipodi:type="arc" style="fill:none;stroke:#000000;stroke-width:0.95317476999999995;stroke-linecap:round;stroke-linejoin:round;stroke-miterlimit:4;stroke-opacity:1;stroke-dasharray:none;stroke-dashoffset:0;opacity:1" id="path4262-1" sodipodi:cx="375" sodipodi:cy="177.36218" sodipodi:rx="95" sodipodi:ry="95" d="m 470,177.36218 a 95,95 0 1 1 -190,0 95,95 0 1 1 190,0 z" transform="matrix(1.1782993,0,0,1.1782993,18.637747,285.87644)" />
<text xml:space="preserve" style="font-size:20px;font-style:normal;font-weight:normal;fill:#000000;fill-opacity:1;stroke:none;font-family:Purisa;-inkscape-font-specification:Purisa" x="356.78809" y="501.57153" id="text4113-5-8"><tspan sodipodi:role="line" id="tspan4115-1-8" x="356.78809" y="501.57153" style="font-size:20px;font-family:OCRA;-inkscape-font-specification:OCRA">0</tspan></text>
<text xml:space="preserve" style="font-size:20px;font-style:normal;font-weight:normal;fill:#000000;fill-opacity:1;stroke:none;font-family:Purisa;-inkscape-font-specification:Purisa" x="367.55341" y="457.52011" id="text4113-5-8-7"><tspan sodipodi:role="line" id="tspan4115-1-8-8" x="367.55341" y="457.52011" style="font-size:20px;font-family:OCRA;-inkscape-font-specification:OCRA">1</tspan></text>
<text xml:space="preserve" style="font-size:20px;font-style:normal;font-weight:normal;fill:#000000;fill-opacity:1;stroke:none;font-family:Purisa;-inkscape-font-specification:Purisa" x="397.14426" y="423.15738" id="text4113-5-8-0"><tspan sodipodi:role="line" id="tspan4115-1-8-87" x="397.14426" y="423.15738" style="font-size:20px;font-family:OCRA;-inkscape-font-specification:OCRA">2</tspan></text>
<text id="text4113-5-8-1" y="405.97394" x="439.11026" style="font-size:20px;font-style:normal;font-weight:normal;fill:#000000;fill-opacity:1;stroke:none;font-family:Purisa;-inkscape-font-specification:Purisa" xml:space="preserve"><tspan style="font-size:20px;font-family:OCRA;-inkscape-font-specification:OCRA" y="405.97394" x="439.11026" id="tspan4115-1-8-1" sodipodi:role="line">3</tspan></text>
<text id="text4113-5-8-14" y="409.71555" x="484.30338" style="font-size:20px;font-style:normal;font-weight:normal;fill:#000000;fill-opacity:1;stroke:none;font-family:Purisa;-inkscape-font-specification:Purisa" xml:space="preserve"><tspan style="font-size:20px;font-family:OCRA;-inkscape-font-specification:OCRA" y="409.71555" x="484.30338" id="tspan4115-1-8-15" sodipodi:role="line">4</tspan></text>
<text id="text4113-5-8-6" y="433.56656" x="522.87207" style="font-size:20px;font-style:normal;font-weight:normal;fill:#000000;fill-opacity:1;stroke:none;font-family:Purisa;-inkscape-font-specification:Purisa" xml:space="preserve"><tspan style="font-size:20px;font-family:OCRA;-inkscape-font-specification:OCRA" y="433.56656" x="522.87207" id="tspan4115-1-8-9" sodipodi:role="line">5</tspan></text>
<text id="text4113-5-8-75" y="472.32776" x="546.40894" style="font-size:20px;font-style:normal;font-weight:normal;fill:#000000;fill-opacity:1;stroke:none;font-family:Purisa;-inkscape-font-specification:Purisa" xml:space="preserve"><tspan style="font-size:20px;font-family:OCRA;-inkscape-font-specification:OCRA" y="472.32776" x="546.40894" id="tspan4115-1-8-83" sodipodi:role="line">6</tspan></text>
<text id="text4113-5-8-4" y="517.5498" x="549.7832" style="font-size:20px;font-style:normal;font-weight:normal;fill:#000000;fill-opacity:1;stroke:none;font-family:Purisa;-inkscape-font-specification:Purisa" xml:space="preserve"><tspan style="font-size:20px;font-family:OCRA;-inkscape-font-specification:OCRA" y="517.5498" x="549.7832" id="tspan4115-1-8-5" sodipodi:role="line">7</tspan></text>
<text id="text4113-5-8-14-4" y="559.37482" x="532.25928" style="font-size:20px;font-style:normal;font-weight:normal;fill:#000000;fill-opacity:1;stroke:none;font-family:Purisa;-inkscape-font-specification:Purisa" xml:space="preserve"><tspan style="font-size:20px;font-family:OCRA;-inkscape-font-specification:OCRA" y="559.37482" x="532.25928" id="tspan4115-1-8-15-1" sodipodi:role="line">8</tspan></text>
<text id="text4113-5-8-6-4" y="588.68549" x="497.65723" style="font-size:20px;font-style:normal;font-weight:normal;fill:#000000;fill-opacity:1;stroke:none;font-family:Purisa;-inkscape-font-specification:Purisa" xml:space="preserve"><tspan style="font-size:20px;font-family:OCRA;-inkscape-font-specification:OCRA" y="588.68549" x="497.65723" id="tspan4115-1-8-9-6" sodipodi:role="line">9</tspan></text>
<text id="text4113-5-8-75-7" y="599.09247" x="447.83261" style="font-size:20px;font-style:normal;font-weight:normal;fill:#000000;fill-opacity:1;stroke:none;font-family:Purisa;-inkscape-font-specification:Purisa" xml:space="preserve"><tspan style="font-size:20px;font-family:OCRA;-inkscape-font-specification:OCRA" y="599.09247" x="447.83261" id="tspan4115-1-8-83-3" sodipodi:role="line">10</tspan></text>
<text id="text4113-5-8-4-6" y="588.32721" x="400.49399" style="font-size:20px;font-style:normal;font-weight:normal;fill:#000000;fill-opacity:1;stroke:none;font-family:Purisa;-inkscape-font-specification:Purisa" xml:space="preserve"><tspan style="font-size:20px;font-family:OCRA;-inkscape-font-specification:OCRA" y="588.32721" x="400.49399" id="tspan4115-1-8-5-6" sodipodi:role="line">11</tspan></text>
<path style="font-size:16px;font-style:normal;font-variant:normal;font-weight:normal;font-stretch:normal;text-indent:0;text-align:start;text-decoration:none;line-height:normal;letter-spacing:normal;word-spacing:normal;text-transform:none;direction:ltr;block-progression:tb;writing-mode:lr-tb;text-anchor:start;color:#000000;fill:#000000;fill-opacity:1;stroke:none;stroke-width:0.96000004px;marker:none;visibility:visible;display:inline;overflow:visible;enable-background:accumulate;font-family:'.Aqua Kana';-inkscape-font-specification:'.Aqua Kana'" d="m 446.98438,410.22977 -1.17188,0.19531 4.6875,29.6875 c 0.39104,-0.071 0.77804,-0.1325 1.17188,-0.19531 l -4.6875,-29.6875 z m 38.75,2.69531 -9.29688,28.59375 c 0.39088,0.11662 0.78466,0.22664 1.17188,0.35156 l 9.25781,-28.55469 -1.13281,-0.39062 z m -75.70313,12.65625 -0.97656,0.70312 17.65625,24.29688 c 0.31819,-0.24316 0.65302,-0.46673 0.97656,-0.70313 l -17.65625,-24.29687 z m 110.15625,7.73437 -21.25,21.25 c 0.28916,0.27598 0.5762,0.5773 0.85938,0.85938 l 21.25,-21.25 -0.85938,-0.85938 z m -136.09375,22.73438 -0.54687,1.05469 26.75781,13.63281 c 0.17042,-0.3537 0.36924,-0.7052 0.54687,-1.05469 l -26.75781,-13.63281 z m 157.5,11.09375 -28.55469,9.25781 c 0.13512,0.38475 0.26378,0.78331 0.39063,1.17188 l 28.55469,-9.29688 -0.39063,-1.13281 z m -166.79687,27.8125 0,1.21094 30.03906,0 c -0.009,-0.40578 5.6e-4,-0.80307 0,-1.21094 l -30.03906,0 z m 140.85937,7.30469 c -0.0532,0.40061 -0.0946,0.81306 -0.15625,1.21093 l 29.6875,4.6875 0.15625,-1.17187 -29.6875,-4.72656 z m -9.375,24.25781 c -0.226,0.32631 -0.43132,0.65536 -0.66406,0.97656 l 24.29687,17.65625 0.70313,-0.97656 -24.33594,-17.65625 z m -19.33594,17.34375 c -0.351,0.18995 -0.6992,0.3643 -1.05468,0.54687 l 13.63281,26.75782 1.05469,-0.54688 -13.63282,-26.75781 z m -51.64062,0.66406 -13.63281,26.75781 1.09375,0.54688 13.63281,-26.75781 c -0.37098,-0.17833 -0.72739,-0.36063 -1.09375,-0.54688 z m 26.52344,5.97656 c -0.40584,0.01 -0.803,0.0382 -1.21094,0.0391 l 0,30.03906 1.21094,0 0,-30.07813 z" id="path4818-81-4" />
<path style="font-size:16px;font-style:normal;font-variant:normal;font-weight:normal;font-stretch:normal;text-indent:0;text-align:start;text-decoration:none;line-height:normal;letter-spacing:normal;word-spacing:normal;text-transform:none;direction:ltr;block-progression:tb;writing-mode:lr-tb;text-anchor:start;color:#000000;fill:#000000;fill-opacity:1;stroke:none;stroke-width:0.44999999;marker:none;visibility:visible;display:inline;overflow:visible;enable-background:accumulate;font-family:'.Aqua Kana';-inkscape-font-specification:'.Aqua Kana'" d="m 459.52344,409.13602 0,8.63281 c 0.1828,5.7e-4 0.36385,-0.002 0.54687,0 l 0,-8.63281 -0.54687,0 z m 13.39844,0.89843 -1.36719,8.75 c 0.18065,0.0301 0.36662,0.0466 0.54687,0.0781 l 1.36719,-8.71094 -0.54687,-0.11719 z m -39.29688,3.4375 -0.54687,0.19532 2.57812,7.92968 c 0.18466,-0.0609 0.36168,-0.13576 0.54688,-0.19531 l -2.57813,-7.92969 z m 64.92188,4.57032 -4.375,8.55468 c 0.16417,0.0885 0.34437,0.14464 0.50781,0.23438 l 4.33594,-8.51563 -0.46875,-0.27343 z m -77.34375,0.625 -0.50782,0.27343 3.75,7.38282 c 0.17014,-0.0874 0.33703,-0.18729 0.50782,-0.27344 l -3.75,-7.38281 z m 88.86718,6.28906 -5.85937,8.08594 c 0.14079,0.108 0.2897,0.20356 0.42969,0.3125 l 5.89843,-8.08594 -0.46875,-0.3125 z m -110.46875,9.60937 -0.39062,0.39063 5.54687,5.54687 c 0.13125,-0.12821 0.25855,-0.26331 0.39063,-0.39062 l -5.54688,-5.54688 z m 129.64844,9.10157 -8.86719,6.44531 c 0.111,0.16234 0.24193,0.30552 0.35157,0.46875 l 8.86718,-6.44531 -0.35156,-0.46875 z m -138.35937,1.17187 -0.3125,0.42969 6.09375,4.41406 c 0.10775,-0.14207 0.2038,-0.28834 0.3125,-0.42969 l -6.09375,-4.41406 z m 145.54687,10.23438 -10.23437,5.19531 c 0.0831,0.17877 0.15272,0.36739 0.23437,0.54687 l 10.23438,-5.23437 -0.23438,-0.50781 z m -157.57812,13.71093 -0.19532,0.54688 6.17188,1.99219 c 0.0657,-0.1819 0.12835,-0.36555 0.19531,-0.54688 l -6.17187,-1.99219 z m 166.13281,11.67969 -12.73438,2.03125 c 0.0181,0.19336 0.0227,0.3922 0.0391,0.58594 l 12.77343,-2.03125 -0.0781,-0.58594 z m -169.21875,1.40625 -0.0781,0.54688 5.85938,0.9375 c 0.0351,-0.18184 0.0809,-0.36545 0.11719,-0.54688 l -5.89844,-0.9375 z m 156.52344,11.99219 c -0.0155,0.19554 -0.0219,0.39019 -0.0391,0.58594 l 13.94532,0 0,-0.58594 -13.90625,0 z M 526.75,515.34695 c -0.0776,0.16864 -0.15526,0.3399 -0.23437,0.50782 l 15.625,5.07812 0.19531,-0.50781 -15.58594,-5.07813 z m -5.35156,9.41407 c -0.11038,0.16177 -0.23984,0.30801 -0.35156,0.46875 l 16.01562,8.16406 0.27344,-0.50781 -15.9375,-8.125 z m -14.41406,15.19531 c -0.15005,0.113 -0.31774,0.20095 -0.46875,0.3125 l 14.88281,14.88281 0.39062,-0.39062 -14.80468,-14.80469 z m -8.59375,5.39062 c -0.15455,0.0799 -0.31352,0.1559 -0.46875,0.23438 l 13.32031,18.35937 0.42969,-0.3125 -13.28125,-18.28125 z m -54.88282,3.16407 -9.10156,28.00781 0.54688,0.15625 9.10156,-28.00781 c -0.18159,-0.0555 -0.36608,-0.099 -0.54688,-0.15625 z m 8.63282,1.99218 -4.60938,29.10157 0.54688,0.0781 4.60937,-29.14062 c -0.1806,-0.0252 -0.36682,-0.0122 -0.54687,-0.0391 z m 27.69531,0.625 c -0.196,0.0238 -0.38946,0.0565 -0.58594,0.0781 l 8.125,25.03906 0.54688,-0.15625 -8.08594,-24.96094 z m -9.96094,0.23438 4.45313,28.08594 0.54687,-0.0781 -4.41406,-27.96875 c -0.19614,-0.0125 -0.38951,-0.0249 -0.58594,-0.0391 z" id="path4818-4-3-6-0" />
<path sodipodi:type="arc" style="fill:none;stroke:none" id="path5418" sodipodi:cx="307.5" sodipodi:cy="474.86218" sodipodi:rx="12.5" sodipodi:ry="12.5" d="m 320,474.86218 a 12.5,12.5 0 1 1 -25,0 12.5,12.5 0 1 1 25,0 z" transform="matrix(4.5,0,0,4.5,-923.25,-1642.0177)" />
<path sodipodi:type="arc" style="fill:#ffffff;fill-opacity:1;fill-rule:nonzero;stroke:#00ff00;stroke-opacity:1" id="path6147" sodipodi:cx="220" sodipodi:cy="347.36218" sodipodi:rx="67.26812" sodipodi:ry="67.26812" d="m 287.26812,347.36218 a 67.26812,67.26812 0 1 1 -134.53624,0 67.26812,67.26812 0 1 1 134.53624,0 z" transform="matrix(0.66896474,0,0,0.66896474,313.32774,262.48912)" />
</g>
</svg>
